<svg width="27" height="26" viewBox="0 0 27 26" fill="none" xmlns="http://www.w3.org/2000/svg">
<path d="M15.3977 5.0844C15.3977 4.17992 14.7367 3.41123 13.8424 3.27578C13.6154 3.24141 13.3846 3.24141 13.1576 3.27578C12.2633 3.41123 11.6023 4.17993 11.6023 5.08441V6.36346C11.0913 6.50929 10.6046 6.71253 10.1495 6.96575L9.24472 6.06093C8.60516 5.42137 7.5942 5.34525 6.86607 5.88182C6.68126 6.01801 6.51801 6.18126 6.38182 6.36607C5.84524 7.0942 5.92137 8.10517 6.56093 8.74474L7.46574 9.64955C7.21252 10.1046 7.00929 10.5913 6.86346 11.1023H5.58441C4.67993 11.1023 3.91124 11.7633 3.77579 12.6576C3.7414 12.8846 3.7414 13.1154 3.77579 13.3424C3.91124 14.2367 4.67992 14.8977 5.5844 14.8977H6.86346C7.00929 15.4087 7.21252 15.8954 7.46574 16.3505L6.56094 17.2553C5.92137 17.8948 5.84525 18.9058 6.38182 19.6339C6.51801 19.8187 6.68126 19.982 6.86608 20.1182C7.5942 20.6548 8.60516 20.5786 9.24472 19.9391L10.1495 19.0343C10.6046 19.2875 11.0913 19.4907 11.6023 19.6366V20.9156C11.6023 21.8201 12.2633 22.5888 13.1576 22.7242C13.3846 22.7586 13.6154 22.7586 13.8424 22.7242C14.7367 22.5888 15.3977 21.8201 15.3977 20.9156V19.6366C15.9087 19.4907 16.3954 19.2875 16.8505 19.0343L17.7553 19.9391C18.3948 20.5786 19.4058 20.6548 20.1339 20.1182C20.3188 19.982 20.482 19.8188 20.6182 19.6339C21.1548 18.9058 21.0786 17.8949 20.4391 17.2553L19.5343 16.3505C19.7875 15.8954 19.9907 15.4087 20.1366 14.8977H21.4156C22.3201 14.8977 23.0888 14.2367 23.2242 13.3424C23.2586 13.1154 23.2586 12.8846 23.2242 12.6576C23.0888 11.7633 22.3201 11.1023 21.4156 11.1023H20.1366C19.9907 10.5913 19.7875 10.1046 19.5343 9.64954L20.4391 8.74472C21.0786 8.10516 21.1548 7.0942 20.6182 6.36607C20.482 6.18126 20.3188 6.01801 20.1339 5.88182C19.4058 5.34524 18.3948 5.42137 17.7553 6.06093L16.8505 6.96574C16.3954 6.71252 15.9087 6.50929 15.3977 6.36346V5.0844Z" stroke="#000A27" stroke-width="1.5" stroke-linecap="round" stroke-linejoin="round"/>
<path d="M10.7917 13C10.7917 11.5042 12.0042 10.2916 13.5 10.2916C14.9958 10.2916 16.2083 11.5042 16.2083 13C16.2083 14.4957 14.9958 15.7083 13.5 15.7083C12.0042 15.7083 10.7917 14.4957 10.7917 13Z" stroke="#000A27" stroke-width="1.5"/>
</svg>
